<?xml version="1.0" encoding="utf-8"?>
<!-- Generator: Adobe Illustrator 16.0.0, SVG Export Plug-In . SVG Version: 6.00 Build 0)  -->
<!DOCTYPE svg PUBLIC "-//W3C//DTD SVG 1.1//EN" "http://www.w3.org/Graphics/SVG/1.1/DTD/svg11.dtd">
<svg version="1.1" id="Layer_1" focusable="false" xmlns="http://www.w3.org/2000/svg" xmlns:xlink="http://www.w3.org/1999/xlink"
	 x="0px" y="0px" width="612px" height="792px" viewBox="0 0 612 792" enable-background="new 0 0 612 792" xml:space="preserve">
<path fill="#FFFFFF" d="M306,99.562C142.242,99.562,9.562,232.242,9.562,396S142.242,692.438,306,692.438
	S602.438,559.758,602.438,396S469.758,99.562,306,99.562z M478.125,429.469c0,7.889-6.455,14.344-14.344,14.344H353.812v109.969
	c0,7.889-6.455,14.344-14.344,14.344h-66.938c-7.889,0-14.344-6.455-14.344-14.344V443.812H148.219
	c-7.889,0-14.344-6.455-14.344-14.344v-66.938c0-7.889,6.455-14.344,14.344-14.344h109.969V238.219
	c0-7.889,6.455-14.344,14.344-14.344h66.938c7.889,0,14.344,6.455,14.344,14.344v109.969h109.969
	c7.889,0,14.344,6.455,14.344,14.344V429.469z"/>
</svg>
