<?xml version="1.0" encoding="utf-8"?>
<!-- Generator: Adobe Illustrator 16.0.0, SVG Export Plug-In . SVG Version: 6.00 Build 0)  -->
<!DOCTYPE svg PUBLIC "-//W3C//DTD SVG 1.1//EN" "http://www.w3.org/Graphics/SVG/1.1/DTD/svg11.dtd">
<svg version="1.1" id="Layer_1" focusable="false" xmlns="http://www.w3.org/2000/svg" xmlns:xlink="http://www.w3.org/1999/xlink"
	 x="0px" y="0px" width="612px" height="792px" viewBox="0 0 612 792" enable-background="new 0 0 612 792" xml:space="preserve">
<path fill="#FFFFFF" d="M603.633,619.165L484.46,499.992c-5.379-5.379-12.67-8.367-20.32-8.367h-19.483
	c32.99-42.194,52.594-95.267,52.594-153C497.25,201.284,385.967,90,248.625,90C111.284,90,0,201.284,0,338.625
	C0,475.967,111.284,587.25,248.625,587.25c57.733,0,110.806-19.604,153-52.594v19.483c0,7.65,2.988,14.941,8.367,20.32
	l119.173,119.173c11.235,11.236,29.404,11.236,40.521,0l33.828-33.827C614.749,648.569,614.749,630.4,603.633,619.165z
	 M248.625,491.625c-84.509,0-153-68.372-153-153c0-84.509,68.372-153,153-153c84.509,0,153,68.372,153,153
	C401.625,423.134,333.253,491.625,248.625,491.625z"/>
</svg>
