<?xml version="1.0" encoding="utf-8"?>
<!-- Generator: Adobe Illustrator 16.0.0, SVG Export Plug-In . SVG Version: 6.00 Build 0)  -->
<!DOCTYPE svg PUBLIC "-//W3C//DTD SVG 1.1//EN" "http://www.w3.org/Graphics/SVG/1.1/DTD/svg11.dtd">
<svg version="1.1" id="Layer_1" focusable="false" xmlns="http://www.w3.org/2000/svg" xmlns:xlink="http://www.w3.org/1999/xlink"
	 x="0px" y="0px" width="612px" height="792px" viewBox="0 0 612 792" enable-background="new 0 0 612 792" xml:space="preserve">
<path fill="#FFFFFF" d="M594.07,416.32L393.258,617.133c-17.93,17.93-49.008,5.379-49.008-20.32v-114.75H181.688
	c-15.897,0-28.688-12.79-28.688-28.688v-114.75c0-15.897,12.79-28.688,28.688-28.688H344.25v-114.75
	c0-25.58,30.959-38.25,49.008-20.32L594.07,375.68C605.187,386.916,605.187,405.084,594.07,416.32z M229.5,611.156v-47.812
	c0-7.889-6.455-14.344-14.344-14.344H114.75c-21.157,0-38.25-17.093-38.25-38.25v-229.5c0-21.157,17.093-38.25,38.25-38.25h100.406
	c7.889,0,14.344-6.455,14.344-14.344v-47.812c0-7.889-6.455-14.344-14.344-14.344H114.75C51.398,166.5,0,217.898,0,281.25v229.5
	C0,574.102,51.398,625.5,114.75,625.5h100.406C223.045,625.5,229.5,619.045,229.5,611.156z"/>
</svg>
