<?xml version="1.0" encoding="utf-8"?>
<!-- Generator: Adobe Illustrator 16.0.0, SVG Export Plug-In . SVG Version: 6.00 Build 0)  -->
<!DOCTYPE svg PUBLIC "-//W3C//DTD SVG 1.1//EN" "http://www.w3.org/Graphics/SVG/1.1/DTD/svg11.dtd">
<svg version="1.1" id="Layer_1" focusable="false" xmlns="http://www.w3.org/2000/svg" xmlns:xlink="http://www.w3.org/1999/xlink"
	 x="0px" y="0px" width="612px" height="792px" viewBox="0 0 612 792" enable-background="new 0 0 612 792" xml:space="preserve">
<path fill="#FFFFFF" d="M178.5,156.938v95.625c0,15.844-12.844,28.688-28.688,28.688H28.688C12.844,281.25,0,268.406,0,252.562
	v-95.625c0-15.844,12.844-28.688,28.688-28.688h121.125C165.656,128.25,178.5,141.094,178.5,156.938L178.5,156.938z M395.25,443.812
	v-95.625c0-15.844-12.843-28.688-28.688-28.688H245.437c-15.844,0-28.688,12.844-28.688,28.688v95.625
	c0,15.844,12.844,28.688,28.688,28.688h121.125C382.407,472.5,395.25,459.656,395.25,443.812z M433.5,156.938v95.625
	c0,15.844,12.844,28.688,28.688,28.688h121.125c15.844,0,28.688-12.844,28.688-28.688v-95.625c0-15.844-12.844-28.688-28.688-28.688
	H462.188C446.344,128.25,433.5,141.094,433.5,156.938z M395.25,252.562v-95.625c0-15.844-12.843-28.688-28.688-28.688H245.437
	c-15.844,0-28.688,12.844-28.688,28.688v95.625c0,15.844,12.844,28.688,28.688,28.688h121.125
	C382.407,281.25,395.25,268.406,395.25,252.562z M149.812,319.5H28.688C12.844,319.5,0,332.344,0,348.188v95.625
	C0,459.656,12.844,472.5,28.688,472.5h121.125c15.844,0,28.688-12.844,28.688-28.688v-95.625
	C178.5,332.344,165.656,319.5,149.812,319.5L149.812,319.5z M0,539.438v95.625c0,15.844,12.844,28.688,28.688,28.688h121.125
	c15.844,0,28.688-12.844,28.688-28.688v-95.625c0-15.844-12.844-28.688-28.688-28.688H28.688C12.844,510.75,0,523.594,0,539.438z
	 M462.188,472.5h121.125c15.844,0,28.688-12.844,28.688-28.688v-95.625c0-15.844-12.844-28.688-28.688-28.688H462.188
	c-15.844,0-28.688,12.844-28.688,28.688v95.625C433.5,459.656,446.344,472.5,462.188,472.5z M462.188,663.75h121.125
	c15.844,0,28.688-12.844,28.688-28.688v-95.625c0-15.844-12.844-28.688-28.688-28.688H462.188
	c-15.844,0-28.688,12.844-28.688,28.688v95.625C433.5,650.906,446.344,663.75,462.188,663.75z M216.75,539.438v95.625
	c0,15.844,12.844,28.688,28.688,28.688h121.125c15.844,0,28.688-12.844,28.688-28.688v-95.625c0-15.844-12.844-28.688-28.688-28.688
	H245.437C229.593,510.75,216.75,523.594,216.75,539.438z"/>
</svg>
