<?xml version="1.0" encoding="utf-8"?>
<!-- Generator: Adobe Illustrator 16.0.0, SVG Export Plug-In . SVG Version: 6.00 Build 0)  -->
<!DOCTYPE svg PUBLIC "-//W3C//DTD SVG 1.1//EN" "http://www.w3.org/Graphics/SVG/1.1/DTD/svg11.dtd">
<svg version="1.1" id="Layer_1" focusable="false" xmlns="http://www.w3.org/2000/svg" xmlns:xlink="http://www.w3.org/1999/xlink"
	 x="0px" y="0px" width="612px" height="792px" viewBox="0 0 612 792" enable-background="new 0 0 612 792" xml:space="preserve">
<path fill="#DC3545" d="M590.143,90H426.214l-12.841-25.545c-5.548-11.14-16.926-18.178-29.37-18.169H227.861
	c-12.422-0.048-23.777,7.01-29.234,18.169L185.786,90H21.857C9.786,90,0,99.786,0,111.857v43.714
	c0,12.071,9.786,21.857,21.857,21.857h568.286c12.071,0,21.857-9.786,21.857-21.857v-43.714C612,99.786,602.214,90,590.143,90z
	 M72.675,684.241c2.164,34.552,30.815,61.469,65.435,61.473h335.781c34.619-0.004,63.271-26.921,65.435-61.473l28.961-463.099
	H43.714L72.675,684.241z"/>
</svg>
